<?xml version="1.0" standalone="no"?>
<!DOCTYPE svg PUBLIC "-//W3C//DTD SVG 20010904//EN"
 "http://www.w3.org/TR/2001/REC-SVG-20010904/DTD/svg10.dtd">
<svg version="1.0" xmlns="http://www.w3.org/2000/svg"
 width="700.000000pt" height="700.000000pt" viewBox="0 0 700.000000 700.000000"
 preserveAspectRatio="xMidYMid meet">
<metadata>
Created by potrace 1.14, written by Peter Selinger 2001-2017
</metadata>
<g transform="translate(0.000000,700.000000) scale(0.100000,-0.100000)"
fill="#000000" stroke="none">
<path d="M1170 6934 c-72 -19 -155 -77 -197 -137 -68 -101 -63 178 -63 -3297
0 -3475 -5 -3196 63 -3297 19 -26 58 -65 88 -85 106 -73 -79 -68 2439 -68
2518 0 2333 -5 2439 68 66 45 125 132 141 205 7 36 9 817 8 2597 l-3 2545 -29
60 c-25 52 -109 141 -660 693 -347 348 -653 648 -681 667 -100 69 9 65 -1830
64 -1419 0 -1668 -2 -1715 -15z m3332 -771 c3 -548 3 -559 25 -605 29 -63 96
-134 158 -166 l50 -27 563 -3 562 -3 0 -2485 c0 -2710 4 -2531 -56 -2571 -27
-17 -116 -18 -2304 -18 -2188 0 -2277 1 -2304 18 -60 40 -56 -199 -54 3211 l3
3125 21 28 c11 15 36 33 55 40 26 9 426 12 1656 12 l1622 1 3 -557z m751 -571
c-314 -2 -446 1 -466 9 -57 24 -57 27 -57 511 l0 443 480 -480 480 -480 -437
-3z"/>
<path d="M3195 5118 c-11 -6 -24 -18 -30 -27 -6 -10 -12 -189 -15 -456 l-5
-440 -500 -5 c-275 -3 -506 -9 -514 -14 -35 -23 -41 -70 -41 -338 0 -300 5
-323 70 -345 25 -8 170 -12 513 -12 l477 -1 0 -1074 0 -1074 31 -26 31 -26
288 0 288 0 31 26 31 26 0 1074 0 1074 478 1 c342 0 487 4 512 12 65 22 70 45
70 345 0 268 -6 315 -41 338 -8 5 -239 11 -514 14 l-500 5 -2 435 c-2 297 -6
442 -14 456 -6 12 -22 27 -36 33 -34 15 -580 15 -608 -1z"/>
</g>
</svg>
