<?xml version="1.0" encoding="UTF-8" standalone="no"?>
<svg
   version="1.1"
   width="256"
   height="256"
   viewBox="0 0 256 256"
   xml:space="preserve"
   id="svg321"
   sodipodi:docname="digital-dequest.svg"
   inkscape:version="1.2 (dc2aedaf03, 2022-05-15)"
   xmlns:inkscape="http://www.inkscape.org/namespaces/inkscape"
   xmlns:sodipodi="http://sodipodi.sourceforge.net/DTD/sodipodi-0.dtd"
   xmlns="http://www.w3.org/2000/svg"
   xmlns:svg="http://www.w3.org/2000/svg"><sodipodi:namedview
   id="namedview323"
   pagecolor="#505050"
   bordercolor="#ffffff"
   borderopacity="1"
   inkscape:showpageshadow="0"
   inkscape:pageopacity="0"
   inkscape:pagecheckerboard="1"
   inkscape:deskcolor="#505050"
   showgrid="false"
   inkscape:zoom="2.0058594"
   inkscape:cx="193.68257"
   inkscape:cy="153.79942"
   inkscape:window-width="1912"
   inkscape:window-height="1003"
   inkscape:window-x="26"
   inkscape:window-y="23"
   inkscape:window-maximized="0"
   inkscape:current-layer="svg321" />
<desc
   id="desc288">Created with Fabric.js 1.7.22</desc>
<defs
   id="defs290">

	

	
	
	
	<linearGradient
   id="SVGID_1"
   gradientUnits="userSpaceOnUse"
   x1="21.8064"
   y1="19.2332"
   x2="42.298401"
   y2="19.2332">
<stop
   offset="0%"
   style="stop-color:rgb(255,255,255);stop-opacity: 1"
   id="stop298" />
<stop
   offset="100%"
   style="stop-color:rgb(0,0,0);stop-opacity: 1"
   id="stop300" />
</linearGradient>

	
	
	
	
	
	

	

	
</defs>
<path
   id="rect3589"
   style="fill:#ffffff;fill-opacity:1;stroke:#ffffff;stroke-width:7;stroke-dasharray:none;stroke-opacity:1;stop-color:#000000"
   d="m 46.052734,10.367188 c -2.39188,-1e-6 -4.335937,1.942103 -4.335937,4.333984 V 241.29883 c 0,2.39188 1.944057,4.33398 4.335937,4.33398 H 209.94531 c 2.39188,0 4.33789,-1.9421 4.33789,-4.33398 V 60.033203 h -37.6914 c -6.60429,0 -11.97461,-5.374236 -11.97461,-11.978515 v -37.6875 z m 126.966796,5.943359 v 31.744141 c 0,1.971761 1.60051,3.576171 3.57227,3.576171 h 31.74414 z"
   sodipodi:nodetypes="cssssscsscccsscc" /><path
   d="M 218.95178,50.361824 174.28462,5.6946656 C 171.88153,3.2887784 168.68022,1.964 165.28005,1.964 H 46.05279 c -7.024406,0 -12.738039,5.713632 -12.738039,12.738038 V 241.29796 c 0,7.02441 5.713631,12.73804 12.738039,12.73804 h 163.89162 c 7.0244,0 12.74084,-5.71363 12.74084,-12.73804 V 59.369197 c 0,-3.402972 -1.32758,-6.604287 -3.73347,-9.007373 z m -45.93592,-34.054927 35.32089,35.323689 h -31.74427 c -1.97176,0 -3.57382,-1.604858 -3.57382,-3.576621 V 16.306897 Z M 209.94441,245.6336 H 46.05279 c -2.391883,0 -4.335639,-1.94376 -4.335639,-4.33564 V 14.702038 c 0,-2.391883 1.943756,-4.335638 4.335639,-4.335638 h 118.56347 v 37.687565 c 0,6.604286 5.37193,11.979021 11.97622,11.979021 h 37.69037 V 241.29796 c 0,2.39188 -1.94656,4.33564 -4.33844,4.33564 z"
   style="fill:#000000;fill-rule:nonzero;stroke:none;stroke-width:2.801;stroke-linecap:butt;stroke-linejoin:miter;stroke-miterlimit:10;stroke-dasharray:none"
   stroke-linecap="round"
   id="path292" /><line
   x1="-26.732998"
   y1="1.964"
   x2="30.660997"
   y2="1.964"
   style="fill:url(#SVGID_1);fill-rule:nonzero;stroke:none;stroke-width:2.8008;stroke-linecap:butt;stroke-linejoin:miter;stroke-miterlimit:10;stroke-dasharray:none"
   id="line303" />
<g
   transform="matrix(0.40198792,0,0,0.40198792,128,138.78493)"
   id="g2012">
	<g
   style="opacity:1;fill:none;fill-rule:nonzero;stroke:none;stroke-width:0;stroke-linecap:butt;stroke-linejoin:miter;stroke-miterlimit:10;stroke-dasharray:none"
   transform="matrix(3.89,0,0,3.89,-175.05,-175.05)"
   id="g2010">
	<path
   d="M 75.715,21.881 H 53.275 V 2.14 C 53.275,0.958 52.317,0 51.135,0 h -12.27 c -1.182,0 -2.14,0.958 -2.14,2.14 v 19.741 h -22.44 c -1.182,0 -2.14,0.958 -2.14,2.14 v 12.27 c 0,1.182 0.958,2.14 2.14,2.14 h 22.44 V 87.86 c 0,1.182 0.958,2.14 2.14,2.14 h 12.27 c 1.182,0 2.14,-0.958 2.14,-2.14 V 38.432 h 22.44 c 1.182,0 2.14,-0.958 2.14,-2.14 v -12.27 c 0,-1.183 -0.958,-2.141 -2.14,-2.141 z"
   style="opacity:1;fill:#000000;fill-rule:nonzero;stroke:none;stroke-width:1;stroke-linecap:butt;stroke-linejoin:miter;stroke-miterlimit:10;stroke-dasharray:none"
   stroke-linecap="round"
   id="path2008" />
</g>
</g></svg>
